<?xml version="1.0" encoding="UTF-8" standalone="no"?>
<!DOCTYPE svg PUBLIC "-//W3C//DTD SVG 1.1//EN"
 "http://www.w3.org/Graphics/SVG/1.1/DTD/svg11.dtd">
<!-- Generated by graphviz version 2.26.3 (20100126.1600)
 -->
<!-- Title: G Pages: 1 -->
<svg width="676pt" height="272pt"
 viewBox="0.00 0.00 676.00 272.00" xmlns="http://www.w3.org/2000/svg" xmlns:xlink="http://www.w3.org/1999/xlink">
<g id="graph1" class="graph" transform="scale(1 1) rotate(0) translate(4 268)">
<title>G</title>
<polygon fill="white" stroke="white" points="-4,5 -4,-268 673,-268 673,5 -4,5"/>
<g id="graph2" class="cluster"><title>cluster_GroupC</title>
<polyline fill="none" stroke="gray" points="20,-8 648,-8 "/>
<path fill="none" stroke="gray" d="M648,-8C654,-8 660,-14 660,-20"/>
<polyline fill="none" stroke="gray" points="660,-20 660,-162 "/>
<path fill="none" stroke="gray" d="M660,-162C660,-168 654,-174 648,-174"/>
<polyline fill="none" stroke="gray" points="648,-174 20,-174 "/>
<path fill="none" stroke="gray" d="M20,-174C14,-174 8,-168 8,-162"/>
<polyline fill="none" stroke="gray" points="8,-162 8,-20 "/>
<path fill="none" stroke="gray" d="M8,-20C8,-14 14,-8 20,-8"/>
<text text-anchor="middle" x="334" y="-160.1" font-family="Times Roman,serif" font-size="11.00" fill="gray">GroupC</text>
</g>
<g id="graph3" class="cluster"><title>cluster_GroupC\Data</title>
<polyline fill="none" stroke="gray" points="28,-16 640,-16 "/>
<path fill="none" stroke="gray" d="M640,-16C646,-16 652,-22 652,-28"/>
<polyline fill="none" stroke="gray" points="652,-28 652,-132 "/>
<path fill="none" stroke="gray" d="M652,-132C652,-138 646,-144 640,-144"/>
<polyline fill="none" stroke="gray" points="640,-144 28,-144 "/>
<path fill="none" stroke="gray" d="M28,-144C22,-144 16,-138 16,-132"/>
<polyline fill="none" stroke="gray" points="16,-132 16,-28 "/>
<path fill="none" stroke="gray" d="M16,-28C16,-22 22,-16 28,-16"/>
<text text-anchor="middle" x="334" y="-130.1" font-family="Times Roman,serif" font-size="11.00" fill="gray">Data</text>
</g>
<g id="graph4" class="cluster"><title>cluster_global</title>
<polyline fill="none" stroke="gray" points="546,-182 616,-182 "/>
<path fill="none" stroke="gray" d="M616,-182C622,-182 628,-188 628,-194"/>
<polyline fill="none" stroke="gray" points="628,-194 628,-244 "/>
<path fill="none" stroke="gray" d="M628,-244C628,-250 622,-256 616,-256"/>
<polyline fill="none" stroke="gray" points="616,-256 546,-256 "/>
<path fill="none" stroke="gray" d="M546,-256C540,-256 534,-250 534,-244"/>
<polyline fill="none" stroke="gray" points="534,-244 534,-194 "/>
<path fill="none" stroke="gray" d="M534,-194C534,-188 540,-182 546,-182"/>
<text text-anchor="middle" x="581" y="-242.1" font-family="Times Roman,serif" font-size="11.00" fill="gray">global</text>
</g>
<!-- \\GroupC\\Data\\ILinkedNode -->
<g id="node3" class="node"><title>\\GroupC\\Data\\ILinkedNode</title>
<a xlink:href="GroupC.Data.ILinkedNode.html" xlink:title="ILinkedNode" target="_parent">
<polygon fill="none" stroke="black" points="241,-60 151,-60 151,-24 241,-24 241,-60"/>
<text text-anchor="middle" x="196" y="-39.1" font-family="Courier,monospace" font-size="11.00">ILinkedNode</text>
</a>
</g>
<!-- \\GroupC\\Data\\INode -->
<g id="node8" class="node"><title>\\GroupC\\Data\\INode</title>
<a xlink:href="GroupC.Data.INode.html" xlink:title="INode" target="_parent">
<polygon fill="none" stroke="black" points="78,-87 24,-87 24,-51 78,-51 78,-87"/>
<text text-anchor="middle" x="51" y="-66.1" font-family="Courier,monospace" font-size="11.00">INode</text>
</a>
</g>
<!-- \\GroupC\\Data\\ILinkedNode&#45;&gt;\\GroupC\\Data\\INode -->
<g id="edge5" class="edge"><title>\\GroupC\\Data\\ILinkedNode&#45;&gt;\\GroupC\\Data\\INode</title>
<path fill="none" stroke="black" d="M150.121,-50.543C130.099,-54.2711 106.932,-58.585 88.0323,-62.1043"/>
<polygon fill="none" stroke="black" points="87.2087,-58.6975 78.0184,-63.969 88.4901,-65.5792 87.2087,-58.6975"/>
</g>
<!-- \\GroupC\\Data\\IDoublyLinkedNode -->
<g id="node4" class="node"><title>\\GroupC\\Data\\IDoublyLinkedNode</title>
<a xlink:href="GroupC.Data.IDoublyLinkedNode.html" xlink:title="IDoublyLinkedNode" target="_parent">
<polygon fill="none" stroke="black" points="445,-60 315,-60 315,-24 445,-24 445,-60"/>
<text text-anchor="middle" x="380" y="-39.1" font-family="Courier,monospace" font-size="11.00">IDoublyLinkedNode</text>
</a>
</g>
<!-- \\GroupC\\Data\\IDoublyLinkedNode&#45;&gt;\\GroupC\\Data\\ILinkedNode -->
<g id="edge7" class="edge"><title>\\GroupC\\Data\\IDoublyLinkedNode&#45;&gt;\\GroupC\\Data\\ILinkedNode</title>
<path fill="none" stroke="black" d="M314.351,-42C293.873,-42 271.493,-42 251.761,-42"/>
<polygon fill="none" stroke="black" points="251.707,-38.5001 241.707,-42 251.707,-45.5001 251.707,-38.5001"/>
</g>
<!-- \\GroupC\\Data\\Node -->
<g id="node5" class="node"><title>\\GroupC\\Data\\Node</title>
<a xlink:href="GroupC.Data.Node.html" xlink:title="Node" target="_parent">
<polygon fill="none" stroke="black" points="223,-114 169,-114 169,-78 223,-78 223,-114"/>
<text text-anchor="middle" x="196" y="-93.1" font-family="Courier,monospace" font-size="11.00">Node</text>
</a>
</g>
<!-- \\GroupC\\Data\\Node&#45;&gt;\\GroupC\\Data\\INode -->
<g id="edge13" class="edge"><title>\\GroupC\\Data\\Node&#45;&gt;\\GroupC\\Data\\INode</title>
<path fill="none" stroke="black" stroke-dasharray="1,5" d="M168.727,-90.9215C145.942,-86.6789 113.235,-80.5886 88.0751,-75.9036"/>
<polygon fill="none" stroke="black" points="88.6229,-72.4455 78.1511,-74.0557 87.3414,-79.3273 88.6229,-72.4455"/>
</g>
<!-- \\GroupC\\Data\\DoublyLinkedNode -->
<g id="node6" class="node"><title>\\GroupC\\Data\\DoublyLinkedNode</title>
<a xlink:href="GroupC.Data.DoublyLinkedNode.html" xlink:title="DoublyLinkedNode" target="_parent">
<polygon fill="none" stroke="black" points="643,-87 519,-87 519,-51 643,-51 643,-87"/>
<text text-anchor="middle" x="581" y="-66.1" font-family="Courier,monospace" font-size="11.00">DoublyLinkedNode</text>
</a>
</g>
<!-- \\GroupC\\Data\\DoublyLinkedNode&#45;&gt;\\GroupC\\Data\\IDoublyLinkedNode -->
<g id="edge15" class="edge"><title>\\GroupC\\Data\\DoublyLinkedNode&#45;&gt;\\GroupC\\Data\\IDoublyLinkedNode</title>
<path fill="none" stroke="black" stroke-dasharray="1,5" d="M518.229,-60.5681C498.431,-57.9087 476.349,-54.9423 455.746,-52.1748"/>
<polygon fill="none" stroke="black" points="456.144,-48.697 445.767,-50.8344 455.212,-55.6346 456.144,-48.697"/>
</g>
<!-- \\GroupC\\Data\\LinkedNode -->
<g id="node7" class="node"><title>\\GroupC\\Data\\LinkedNode</title>
<a xlink:href="GroupC.Data.LinkedNode.html" xlink:title="LinkedNode" target="_parent">
<polygon fill="none" stroke="black" points="422,-114 338,-114 338,-78 422,-78 422,-114"/>
<text text-anchor="middle" x="380" y="-93.1" font-family="Courier,monospace" font-size="11.00">LinkedNode</text>
</a>
</g>
<!-- \\GroupC\\Data\\DoublyLinkedNode&#45;&gt;\\GroupC\\Data\\LinkedNode -->
<g id="edge9" class="edge"><title>\\GroupC\\Data\\DoublyLinkedNode&#45;&gt;\\GroupC\\Data\\LinkedNode</title>
<path fill="none" stroke="black" d="M518.229,-77.4319C490.672,-81.1337 458.687,-85.4302 432.429,-88.9573"/>
<polygon fill="none" stroke="black" points="431.743,-85.5179 422.298,-90.3181 432.675,-92.4556 431.743,-85.5179"/>
</g>
<!-- \\GroupC\\Data\\LinkedNode&#45;&gt;\\GroupC\\Data\\ILinkedNode -->
<g id="edge17" class="edge"><title>\\GroupC\\Data\\LinkedNode&#45;&gt;\\GroupC\\Data\\ILinkedNode</title>
<path fill="none" stroke="black" stroke-dasharray="1,5" d="M337.787,-83.6113C312.179,-76.0959 279.206,-66.4191 251.503,-58.2888"/>
<polygon fill="none" stroke="black" points="252.139,-54.828 241.558,-55.3703 250.168,-61.5447 252.139,-54.828"/>
</g>
<!-- \\GroupC\\Data\\LinkedNode&#45;&gt;\\GroupC\\Data\\Node -->
<g id="edge11" class="edge"><title>\\GroupC\\Data\\LinkedNode&#45;&gt;\\GroupC\\Data\\Node</title>
<path fill="none" stroke="black" d="M337.787,-96C306.277,-96 263.616,-96 233.343,-96"/>
<polygon fill="none" stroke="black" points="233.19,-92.5001 223.19,-96 233.19,-99.5001 233.19,-92.5001"/>
</g>
<!-- \\SplLoader -->
<g id="node10" class="node"><title>\\SplLoader</title>
<a xlink:href="SplLoader.html" xlink:title="SplLoader" target="_parent">
<polygon fill="none" stroke="black" points="619,-226 543,-226 543,-190 619,-190 619,-226"/>
<text text-anchor="middle" x="581" y="-205.1" font-family="Courier,monospace" font-size="11.00">SplLoader</text>
</a>
</g>
</g>
</svg>
